<svg xmlns="http://www.w3.org/2000/svg" width="128" height="128"><path d="M65.063-.062 68 0v2l3.512-.129c4.322.007 8.201.863 12.3 2.192l2.102.674C95.927 8.137 104.79 14.255 112 22v2h2a100 100 0 0 1 3.938 6.188l1.052 1.751C120 33.622 121 35.311 122 37l1.691 2.613c1.395 2.545 1.883 4.53 2.309 7.387l.535 2.727C130.122 69.44 126.085 86.415 115 103c-3.324 4.334-7.086 8.195-11 12l-2 2a190 190 0 0 1-7 3l-3.719 1.57q-1.89.78-3.781 1.555c-.625.264-1.25.529-1.895.8C72.8 129.15 55.975 128.469 43 124a136 136 0 0 1-9.344-4.598c-2.6-1.448-2.6-1.448-5.293-2.367-2.656-1.163-3.84-2.312-5.675-4.535l-1.793-2.164c-.626-.77-1.25-1.542-1.895-2.336l-2.05-2.398C3.555 89.61.835 72.192 2.202 52A64 64 0 0 1 4 42h2l.816-2.676C11.842 25.21 23.382 14.423 36.438 7.656 44.38 3.963 52.308 1.836 61 1c1-1 1-1 4.063-1.062" fill="#8F9BB4"/><path d="M6 46c4.338 1.457 7.597 3.795 11.125 6.625a284 284 0 0 0 15.926 11.684L35 66v3l6 1-1 3c-2.562 1.188-2.562 1.188-5 2l8-1 1 2h-3l2.25 1.313A73 73 0 0 1 50 82l-.937-1.75c-.996-2.108-1.5-4.001-2.063-6.25l-1.062-2.125C44.409 68.819 45 65.386 45 62h-2l-1 2-4-2 1-3 1.936.48c4.035.685 7.998.754 12.084.836l2.601.063q4.096.097 8.191.184l5.569.13q6.81.16 13.619.307v1c-7.535.86-15.048 1.282-22.625 1.563l-3.332.13Q53.023 63.85 49 64l2.438 2.375C54 69 54 69 55 71c-.559 2.383-.559 2.383-1.437 5.125l-.872 2.758L52 81l4 2 2-2 1 1 1.313-1.437C62 79 62 79 65 78v13l4-1c2.145 1.508 2.145 1.508 5 4a334 334 0 0 0 4.574 3.242l2.522 1.793a516 516 0 0 0 5.218 3.656c6.336 4.546 6.336 4.546 8.268 8.754L95 114a939 939 0 0 1-17-2v-3l-8-2v-2l-2-.75c-3.151-1.313-6.123-2.84-9.133-4.445C56.88 98.802 56.88 98.802 54 99c1.25-3.653 1.671-4.78 5-7l1-3-1.863-.148-2.45-.227c-.8-.07-1.6-.14-2.425-.21C51 88 51 88 48 86v-2l-4-1-2 4 6 5c-.364 2.83-.908 3.908-2.96 5.957-.798.612-1.594 1.225-2.415 1.856l-2.398 1.894L38 103l-3-1 .938-1.5c1.185-2.79 1.467-5.396 1.777-8.395C38.142 88.95 39.05 86.035 40 83h-2l-.503 1.785q-1.153 4.076-2.31 8.153l-.79 2.806A329 329 0 0 1 29 113l6.75-4.812 1.922-1.37 1.875-1.338 1.83-1.291c1.755-1.248 1.755-1.248 3.764-3.076C47 100 47 100 49.44 100.086c3.02 1.078 4.992 2.54 7.496 4.539 6.276 4.75 12.966 8.06 20.063 11.375v2c-5.724-.747-11.349-1.829-17-3v3l6 1v3l-12 1v2c-7.34.853-13.351-2.158-20-5l-2.371-.941c-5.65-2.457-8.862-6.29-12.628-11.059l-2.04-2.39C4.62 90.911.37 73.911 2 55c.953-2.879.953-2.879 2-5l1.125-2.312z" fill="#C0CCE9"/><path d="M64 2c-1.556 7.924-4.026 15.425-6.625 23.063l-1.273 3.779Q54.557 33.423 53 38l11-2 1-4 2 1 1 3c1.874.802 1.874.802 4.063 1.188l2.222.48L76 38l-1-7 9-3c-4.266-2.954-4.266-2.954-9-5l1-7c11.052 1.96 21.2 6.704 29 15 1.741 4.161 2.214 7.5 2 12l-4-1v-4h-2l-1-5-3-1c-1.844-1.947-3.495-4.008-5.184-6.09-1.84-1.934-3.374-2.885-5.816-3.91l1 3v2a84 84 0 0 0 3.938 3.25c2.754 2.354 3.94 3.43 5.25 6.875-.23 3.52-.892 5.196-3.188 7.875-2.625.688-2.625.688-5 1l-1 2 3 1-5 6c-2.312-.125-2.312-.125-5-1-1.812-3.062-1.812-3.062-3-6v3h-6v-6l-1 2c-3-1-3-1-5-3l-7 2 .563 1.938L59 50c-1 1-1 1-4 1.125C52 51 52 51 51 50l-3 5-5-1c-.625-1.812-.625-1.812-1-4l2-3h2l-1-2c-1.999-.239-1.999-.239-4.312-.25-2.454-.2-2.454-.2-4.688-.75-2.562-3.062-2.562-3.062-4-6l.063 2.938C32 44 32 44 31 45a99 99 0 0 1-5.348.098l-3.271-.01-3.443-.026-3.456-.013A2762 2762 0 0 1 7 45c.812-12.28 7.148-20.024 15.918-28.422C34.298 6.667 48.879.91 64 2" fill="#B8D3F9"/><path d="M48 63h32l-3 3h-3l-1 8h2c3 5.75 3 5.75 3 8l2 1-1 2h3l.688-1.75C84.33 80.434 86.395 78.92 89 77c3.188 7.294 5.578 14.793 7.893 22.398l.74 2.407.653 2.155c1.478 4.374 1.478 4.374 4.839 7.29L105 112c-2.277 4.955-5.182 6.107-10 8q-1.86.782-3.719 1.57-1.89.78-3.781 1.555l-1.895.8c-7.01 2.86-13.717 3.24-21.168 3.2l-2.208.012c-4.186-.008-8.107-.316-12.229-1.137l4-1-1-3 13-1c-2.139-2.139-3.133-2.427-6-3v-3q3.126.465 6.25.938l3.516.527c2.465.408 4.828.874 7.234 1.535v-2l-2.312-.625c-8.16-3.042-15.14-7.352-21.618-13.152-1.996-1.41-1.996-1.41-4.347-1.262-3.988 1.522-7.058 3.997-10.41 6.602a792 792 0 0 1-4.012 3.066l-1.776 1.377C31 113 31 113 29 113c1.433-6.78 3.19-13.41 5.125-20.062l.84-2.913Q35.979 86.512 37 83h4l-.621 2.414-.816 3.211-.81 3.164C38.036 94.85 37.48 97.895 37 101c2.815 0 3.922-1.295 6.125-3l2.195-1.687L47 95c-.79-4.25-2.847-6.09-6-9l3-4c2.152.965 3.757 1.729 5.344 3.5 2.065 1.87 3.625 2.175 6.343 2.688l2.45.48L60 89c-.766 3.815-2.16 5.338-5 8l-1 2 3-1c2.629 1.18 2.629 1.18 5.563 2.875l2.94 1.68L68 104l2 1v2l2.313-.125C75 107 75 107 78 109v3l3.438-.125c4.706-.017 9.025.949 13.562 2.125-2.315-6.332-6.52-8.981-11.875-12.625l-4.805-3.352-2.28-1.57c-1.696-1.208-3.317-2.52-4.915-3.855-2.098-1.92-2.098-1.92-5.25-1.535L63 91c-1.75-2.25-1.75-2.25-3-5l-1.187-2.312L58 82l-4 2c-1.582-1.672-1.582-1.672-3-4 .363-2.578.363-2.578 1.313-5.25l.925-2.703L54 70l-2.437-2.375C49 65 49 65 48 63" fill="#8191AF"/><path d="M65.063-.062 68 0v2l3.512-.129c4.322.007 8.201.863 12.3 2.192l2.102.674C95.927 8.137 104.79 14.255 112 22v2h2a100 100 0 0 1 3.938 6.188l1.052 1.751C120 33.622 121 35.311 122 37l1.691 2.613c1.395 2.545 1.883 4.53 2.309 7.387l.535 2.727C127.78 56.563 128.246 63.057 128 70l-5-2v-8h1l1-10c-6.06-.57-9.25.971-13.875 4.625q-1.833 1.377-3.668 2.75l-1.783 1.36c-2.243 1.695-4.537 3.307-6.862 4.89l-2.042 1.414C95 66 95 66 92 66l-1-2-3-1c12.305-8 12.305-8 19-8l1-4 4-1-1-3h-3v2l-2.52-.508-3.293-.617-3.269-.633C95.808 46.68 95.808 46.68 93 49l1 2 4-3c-.607 4.128-2.038 7.332-4 11h-6l3-5h-2l-2 3h-2c.6-3.356 1.846-5.378 4-8l-2-1 1-3h5c1.802-3.83 2.196-6.781 2-11l-1.766-.805c-2.296-1.228-4.038-2.598-5.984-4.32l-1.86-1.633L84 26l2-4c1.875.25 1.875.25 4 1q1.025 1.988 2 4l1.813.875C97.16 29.597 98.773 31.968 101 35v3h2v4h3a235 235 0 0 0-.25-5.375l-.14-3.023c-.313-2.698-.313-2.698-2.352-3.715L101 29a369 369 0 0 1-4.875-3.812C89.825 20.508 83.449 18.261 76 16l-1 7 2.188.188C80.847 24.245 82.492 26.206 85 29l-10 2 1 7c-5.625.25-5.625.25-9-2l-2-3-1 3c-3.71 2.014-6.829 2.194-11 2 1.587-6.643 3.503-13.157 5.5-19.687l.934-3.088.91-2.987.818-2.686C62.005 6.985 62.97 4.497 64 2l-3-1c1-1 1-1 4.063-1.062" fill="#69C8E3"/><path d="m38 82 3 1-.621 2.414-.816 3.211-.81 3.164C38.036 94.85 37.48 97.895 37 101c2.815 0 3.922-1.295 6.125-3l2.195-1.687L47 95c-.79-4.25-2.847-6.09-6-9l3-4c2.152.965 3.757 1.729 5.344 3.5 2.065 1.87 3.625 2.175 6.343 2.688l2.45.48L60 89c-.766 3.815-2.16 5.338-5 8l-1 2 3-1c2.629 1.18 2.629 1.18 5.563 2.875l2.94 1.68L68 104l2 1v2l2.313-.125C75 107 75 107 78 109v3l3.438-.125c4.706-.017 9.025.949 13.562 2.125l-1-4c3.653 1.25 4.78 1.671 7 5-4.252 3.852-8.09 6.226-13.437 8.25l-1.909.773c-7.024 2.744-13.788 3.142-21.216 3.102l-2.21.012c-4.185-.008-8.106-.316-12.228-1.137l4-1-1-3 13-1c-2.139-2.139-3.133-2.427-6-3v-3q3.126.465 6.25.938l3.516.527c2.465.408 4.828.874 7.234 1.535v-2l-2.312-.625c-8.16-3.042-15.14-7.352-21.618-13.152-1.996-1.41-1.996-1.41-4.347-1.262-3.988 1.522-7.058 3.997-10.41 6.602a792 792 0 0 1-4.012 3.066l-1.776 1.377C31 113 31 113 29 113c1.432-6.75 3.156-13.368 5.063-20l.814-2.887.783-2.738.707-2.477C37 83 37 83 38 82" fill="#91E5FD"/><path d="M31 36c2.252 2.688 3.882 4.646 5 8h9l1 3h-2l-1 6 5 1 3-5 7 1 1-3-3-1 3.438-.375L63 45l1-2 2-1c1.804 2.76 2.013 3.89 1.625 7.25L67 52h9v1c-6.111.959-11.961 1.021-18.145.84-3.058-.07-3.058-.07-5.855 2.16-.724 2.06-.724 2.06-1 4-4.316.762-7.744 1.16-12 0l-1 2c3.01.934 3.867 1.044 7 0q.504 2.187 1 4.375l.563 2.46C47 71 47 71 47 73l.938 1.875C49 77 49 77 49.5 79.063c.465 2.241.465 2.241 2.5 4.937-2.565-1.1-4.096-2.098-6.062-4.125C44.09 77.652 44.09 77.652 41 78v-2l2-1-10 1c4-3 4-3 7-4l1-2-2.875.188L35 70l-2-3 1-1C20.074 55.895 20.074 55.895 6 46l-1 4c-1.43-2.354-2.087-3.48-1.625-6.25L4 42h2l2-4-1 7 24-1z" fill="#8EA2BC"/><path d="m53.813 3.875 2.388.027c1.933.024 3.866.06 5.799.098-2.119 10.145-2.119 10.145-5.062 13a147 147 0 0 1-10.536 3.156c-2.58.906-4.255 2.182-6.402 3.844h-2l-.562 1.688c-1.817 2.922-4.006 4.244-6.88 6.066-1.864 1.26-1.864 1.26-2.558 4.246h-4l-1 6H9c2-5 2-5 3.063-6.875 1.13-2.238 1.13-2.238 1.171-5.387.912-4.449 2.761-6.654 5.954-9.675l1.595-1.555C26.517 13.154 32.965 9.425 40 6l2.36-1.203c3.829-1.156 7.478-1.009 11.453-.922" fill="#F8F7FC"/><path d="M106 69h2l3 13 2-2c3.633-1.144 7.297-2.111 11-3v-5l3-1c-.34 13.942-7.273 27.397-16.559 37.652-2.033 1.902-3.7 2.843-6.441 3.348-2.747-.912-3.766-1.555-5.125-4.145L98 105.187l-.984-2.945L96 99l-1.14-3.617A906 906 0 0 1 92 86h2v-2l2.313-1.75c3.032-2.54 4.022-4.703 5.687-8.25 2.063-2.875 2.063-2.875 4-5" fill="#78B0FA"/><path d="M49.531 100.059c2.938 1.12 4.95 2.605 7.407 4.566 6.275 4.75 12.965 8.06 20.062 11.375v2c-5.724-.747-11.349-1.829-17-3v3l6 1v3l-12 1v2c-7.193.836-13.614-1.828-20-5-2.395-2.172-2.395-2.172-4-4 3.98-6.314 11.4-16.13 19.531-15.941" fill="#A1E7FC"/><path d="m121 48 1 2h3q.039 3.375.063 6.75l.035 3.797c-.078 2.738-.27 4.872-1.098 7.453h2l1 3-3 1 .313 2.313C124 77 124 77 121.937 78.687 118.69 80.14 115.42 81.033 112 82l-2 2-2-15c-3.489 3.48-3.489 3.48-6.914 7.02l-1.711 1.793-1.727 1.832C96 81 96 81 93 81c1.254-3.763 3.192-5.192 6-8 4.577-5.084 4.577-5.084 6.25-11.5 1.228-5.733 6.008-8.394 10.75-11.5l3-1 2 1z" fill="#E1D2F2"/><path d="M98 34h1l-1 10h22l1-7c3 3.386 4.277 5.58 5 10l.535 2.727C127.78 56.563 128.246 63.057 128 70l-5-2v-8h1l1-10c-6.06-.57-9.25.971-13.875 4.625q-1.833 1.377-3.668 2.75l-1.783 1.36c-2.243 1.695-4.537 3.307-6.862 4.89l-2.042 1.414C95 66 95 66 92 66l-1-2-3-1c12.305-8 12.305-8 19-8l1-4 4-1-1-3h-3v2l-2.52-.508-3.293-.617-3.269-.633C95.808 46.68 95.808 46.68 93 49l1 2 4-3c-.607 4.128-2.038 7.332-4 11h-6l3-5h-2l-2 3h-2c.6-3.356 1.846-5.378 4-8l-2-1 1-3h5l.813-2.125c1.255-3.04 2.69-5.948 4.187-8.875" fill="#5E7DB4"/><path d="M65.063-.062 68 0v2h-3l.7 1.879C74.304 27.246 74.304 27.246 76 38c-5.625.25-5.625.25-9-2l-2-3-1 3c-3.71 2.014-6.829 2.194-11 2 1.587-6.643 3.503-13.157 5.5-19.687l.934-3.088.91-2.987.818-2.686C62.005 6.985 62.97 4.497 64 2l-3-1c1-1 1-1 4.063-1.062" fill="#83A3D0"/><path d="M21 57c3.753 1.34 6.659 3.006 9.813 5.438l2.394 1.808L35 66v3l6 1c-1 3-1 3-4.062 4.688L34 76l2 1v3l-5 1-.375 3.688c-.414 3.377-1.17 6.21-2.625 9.312h-2c-2.09-4.18-1.207-9.106-.187-13.5.635-1.872 1.284-3.74 2.023-5.574l.852-2.114.824-1.917c.59-2.291.221-3.675-.512-5.895l-4-1c-2.99 4.486-3.126 8.438-3.098 13.738l.01 3.233.026 3.341.013 3.4Q21.97 91.858 22 96h-2l-3-9-1 8c-3-1-3-1-5-4 .106-6.698 1.96-11.701 4.656-17.781C17.857 67.946 19.416 62.484 21 57" fill="#C8EAFE"/><path d="M67 90c5.92 2.646 11.053 6.933 16.269 10.741a429 429 0 0 0 4.614 3.298l2.43 1.773 2.113 1.52c2.002 2.121 2.24 3.815 2.574 6.668a939 939 0 0 1-17-2v-3l-8-2v-2l-2-.75c-3.151-1.313-6.123-2.84-9.133-4.445C56.88 98.802 56.88 98.802 54 99c.438-2.375.438-2.375 2-5 2.297-.786 4.506-1.188 6.906-1.543 2.302-.305 2.302-.305 4.094-2.457" fill="#C1E2FE"/><path d="M6 46c5.907 2.111 10.771 5.35 15 10 .362 3.679.231 4.73-1 8l-.996 2.95A214 214 0 0 1 16 75h-1l-1-5-1.46 1.277-1.915 1.66-1.898 1.653C7 76 7 76 5 77l-1-3-2-1q-.08-4.343-.125-8.687l-.05-2.475C1.787 57.42 1.93 54.016 4 50l1.125-2.312z" fill="#80D4F6"/><path d="M106 58c.562 3.776.663 5.907-1.348 9.223A149 149 0 0 1 99 74l-1.8 2.129A432 432 0 0 1 93 81c2.712-1.613 5.374-3.249 8-5-1.173 3.337-2.189 5.774-5 8h-2v2h-2l-3-8-2.937 2.375c-.546.44-1.091.882-1.653 1.336C82.867 82.967 82.867 82.967 82 85h-3l-6-15c3.288-2.912 5.599-4.497 10-5l.375 2.25c.58 2.551 1.362 4.477 2.625 6.75h6l-4-2v-2l3.438-.375L95 69l1-2-2 1c-2.333.04-4.667.043-7 0l1-4 5-1-1 3c3.576-1.668 10.821-8 14-8" fill="#A7B0C4"/><path d="m44 20 3 1-3 6 2.75-2.562c2.92-2.464 2.92-2.464 5.625-2.25L54 23v2a108 108 0 0 1-5.187 3.688C44.043 32.048 41.003 35.029 38 40c-4.875-.875-4.875-.875-6-2l.063 2.938C32 44 32 44 31 45a99 99 0 0 1-5.348.098l-3.271-.01-3.443-.026-3.456-.013A2762 2762 0 0 1 7 45c.689-9.517.689-9.517 3.5-13.562l1.344-2.004L13 28h1c.336 6.046-1.881 8.802-5 14h14l1-6h4l.262-1.812c.945-2.801 2.132-3.537 4.55-5.188 3.025-2.139 5.611-4.328 8.188-7z" fill="#EBE3F6"/><path d="M70 8q3.813.934 7.625 1.875l2.16.527C83.928 11.43 87.967 12.588 92 14v2c2.652 1.075 5.284 2.095 8 3v2h2v2l7-2v3h-2l1 7h-2l-1 3v-3l-1.695-.762c-2.656-1.427-4.82-3.175-7.18-5.05C89.825 20.508 83.449 18.261 76 16l-1 7 2.188.188C80.847 24.245 82.492 26.206 85 29l-11 3q-1.007-3.405-2-6.812l-1.125-3.833C70 18 70 18 70 15l2-1-2-1z" fill="#66D1FA"/><path d="m38 82 3 1-.621 2.414-.816 3.211-.81 3.164C38.036 94.85 37.48 97.895 37 101c2.815 0 3.922-1.295 6.125-3l2.195-1.687L47 95c-.79-4.25-2.847-6.09-6-9l3-4c2.152.965 3.757 1.729 5.344 3.5 2.065 1.87 3.625 2.175 6.343 2.688l2.45.48L60 89c-.184 1.781-.184 1.781-1 4-2.16 1.719-2.16 1.719-5.062 3.5-6.149 3.906-11.92 8.181-17.68 12.639l-1.985 1.517-1.768 1.37C31 113 31 113 29 113c1.432-6.75 3.156-13.368 5.063-20l.814-2.887.783-2.738.707-2.477C37 83 37 83 38 82" fill="#778AB9"/><path d="m58.75 1.875 2.984.055L64 2c-1.556 7.924-4.026 15.425-6.625 23.063l-1.273 3.779Q54.557 33.423 53 38h5l1 2-6 1-2-4h-6l-1 3c-2.562 1.188-2.562 1.188-5 2v2h-3l-2-4 2.313-.687c2.837-1.079 2.837-1.079 4.039-3.626 1.879-3.063 3.888-4.792 6.71-7l2.66-2.113C52 25 52 25 54 25v-2c-2.664-.392-4.392-.406-6.668 1.113C45.849 25.363 44.42 26.68 43 28c1.24-4.964 2.633-7.283 7-10 2.326-.85 4.581-1.43 7-2v-3h2l.438-3.437C60 6 60 6 61 5L49 4c3.988-1.994 5.471-2.227 9.75-2.125" fill="#CACFF2"/><path d="m44 75-3 1v2l3 1c1.688 2.563 1.688 2.563 3 5l-3-1-2 4 6 5c-.364 2.83-.908 3.908-2.96 5.957-.798.612-1.594 1.225-2.415 1.856l-2.398 1.894L38 103l-3-1 .938-1.5c1.185-2.79 1.467-5.396 1.777-8.395C38.142 88.95 39.05 86.035 40 83h-2l-6 21-1-4-3-1q.467-3.094.938-6.187l.527-3.481c.449-2.795.956-5.561 1.535-8.332l5-1v-3l-2-1c3.782-1.837 5.946-2.158 10-1" fill="#A1BCF2"/><path d="M88 77c2 1 2 1 2.914 3.19l.926 2.876 1.033 3.163 1.064 3.334c2.843 12.178 2.843 12.178 9.25 21.937l1.813.5-3 5-3-1v-3a80 80 0 0 0-6.25-4.625q-1.92-1.326-3.836-2.656l-1.972-1.36c-2.99-2.093-5.906-4.282-8.817-6.484l-2.992-2.258L73 94l3-1v-2c3.375.547 5.082 1.055 8 3l.813 1.875C86.525 98.94 89.05 100.205 92 102l-.621-2.195c-2.285-8.2-2.285-8.2-2.942-12.43L88 85l-2-1c.875-4.75.875-4.75 2-7" fill="#467DB4"/><path d="M76 16c11.052 1.96 21.2 6.704 29 15 1.741 4.161 2.214 7.5 2 12l-4-1v-4h-2l-1-5-3-1c-1.844-1.947-3.495-4.008-5.184-6.09-1.84-1.934-3.374-2.885-5.816-3.91l1 3v2c1.972 1.824 4.056 3.47 6.152 5.148C95.136 34.136 95.62 35.261 96 38c-2.198-.985-3.82-1.813-5.5-3.562-1.866-1.789-2.928-2.211-5.5-2.438l-2.437 1c-3 1.17-4.517.87-7.563 0v-2l9-3c-4.266-2.954-4.266-2.954-9-5z" fill="#AEDDFC"/><path d="M119 57c2.113 3.17 2.253 3.506 1.75 7l-.266 2.063C120 68 120 68 118 71h-2l-1 3-2-3-2 3-3-2v-3l-2.062 2.063-1.372 1.359a193 193 0 0 0-3.351 3.469l-1.84 1.921-1.727 1.833C96 81 96 81 93 81c1.254-3.763 3.192-5.192 6-8 3.106-3.698 5.865-7.289 7.625-11.812 2.883-6.684 5.818-6.86 12.375-4.188" fill="#F3E1F9"/><path d="M46 105c2.625 1.438 2.625 1.438 5 3 2.191.696 2.191.696 4 1v2h-7l2 2a90 90 0 0 1 1 6c-6.415 2.762-10.4 3.573-17 1-2.5-2.125-2.5-2.125-4-4q1.366-1.913 2.75-3.812c.51-.708 1.02-1.416 1.547-2.145 3.547-4.255 6.101-5.729 11.703-5.043" fill="#EDE5F3"/><path d="M47 36c2.688.313 2.688.313 5 1l1 4 2.25-.937c2.257-.872 4.395-1.54 6.75-2.063l1 7-5 1 .563 1.938L59 50c-1 1-1 1-4 1.125C52 51 52 51 51 50l-3 5-5-1c-.625-1.812-.625-1.812-1-4l2-3h2l-1-2c-3.03-.658-3.03-.658-6-1l1-4 1.813-.312c2.279-.51 2.279-.51 3.624-2.313z" fill="#C7E4FA"/><path d="M13 68c2 2 2 2 2.047 4.102-.488 4.147-1.037 8.123-2.172 12.148-.876 3.755-.8 6.05.125 9.75h2l.375-3.437L16 87l2-1c2.265 4.53 2.561 8.03 2 13-2.5 2-2.5 2-5 3C8.14 96.41 4.745 86.443 3 78a83 83 0 0 1 0-5l3 3 2-2 2.063-2c1.989-1.853 1.989-1.853 2.937-4" fill="#6ACEE9"/><path d="m66 79 2.25 1.438c2.552 1.656 2.552 1.656 4.938 1.937L75 83a125 125 0 0 1 2 5l3 1 1.313-3.375C83 82 83 82 86 80c1.02 1.905 1.916 3.657 2.434 5.762.989 3.908 2.464 7.668 3.824 11.46C93 100 93 100 92 103c-2.915-1.074-4.778-1.778-7-4h-1v-5c-2.639-1.414-5.071-2.372-8-3v2l-4 1-1.937-2.437C68.594 89.725 68.594 89.725 67 88h-1z" fill="#7F94C1"/><path d="M127 71c-.286 11.773-5.162 22.512-12 32-2.875 2.625-2.875 2.625-5 4-.25-5.625-.25-5.625 2-9l1-2h-2c-.125-2.875-.125-2.875 0-6l4-4 .313-2.937C116 80 116 80 118.375 78.125 121 77 121 77 124 77v-5c2-1 2-1 3-1" fill="#62CCFA"/><path d="M86 22c1.875.25 1.875.25 4 1q1.025 1.988 2 4l1.813.875C97.16 29.597 98.773 31.968 101 35v3h2v4h3v-8h2v3l4 2 1-3-3-1 1-4 1 3h4q1.007 1.935 2 3.875l1.125 2.18C120 42 120 42 120 44H98v-8l-2 2-.25-1.875C94.754 33.304 93.637 33.281 91 32a83 83 0 0 1-3.75-3.125l-1.86-1.633L84 26z" fill="#94D2F8"/><path d="M60 115c7.181.918 13.45 1.917 20 5 2.652.769 5.307 1.386 8 2-5.296 5.296-14.262 5.124-21.365 5.137l-2.198-.012-2.208.012c-4.186-.008-8.107-.316-12.229-1.137l4-1-1-3 13-1c-2.139-2.139-3.133-2.427-6-3z" fill="#7CE5FD"/><path d="M21 57c3.753 1.34 6.659 3.006 9.813 5.438l2.394 1.808L35 66v3l6 1c-1 3-1 3-4.062 4.688L34 76l2 1v3l-5 1-.375 3.688c-.414 3.377-1.17 6.21-2.625 9.312h-2c-2.09-4.18-1.207-9.106-.187-13.5.635-1.872 1.284-3.74 2.023-5.574l.852-2.114.824-1.917c.59-2.291.221-3.675-.512-5.895l-5-1-.375-1.937L23 60l-2-1z" fill="#D2E4FA"/><path d="M48 63c3.875 1.257 6.106 2.312 8 6 .447 4.826-.245 8.504-2 13h2v-2l1.813-.812c2.243-1.048 2.243-1.048 3.624-2.876C63 75 63 75 65.25 75c3.747 1.363 6.626 3.56 9.75 6l-1-7c2 2 2 2 3 5.063.658 3.059.658 3.059 3 3.937l-1 2h2v5c-3.887-1.474-4.939-3.505-7-7l-3-1-1 2v-3h-2l-1 5 2 1-2 4h-4c-1.625-2.25-1.625-2.25-3-5l-1.187-2.312L58 82l-4 2c-1.582-1.672-1.582-1.672-3-4 .363-2.578.363-2.578 1.313-5.25l.925-2.703L54 70l-2.437-2.375C49 65 49 65 48 63" fill="#8E9EBA"/><path d="M65.063-.062 68 0v2h-3l.7 1.879C66.816 6.913 67.91 9.955 69 13l.696 1.929a670 670 0 0 1 2.117 6.009c.23.638.461 1.276.7 1.933 1.158 3.38 1.87 5.741.487 9.129-1.66-2.49-2.553-4.252-3.508-7.012l-.8-2.295-.817-2.38-.84-2.417Q66.013 14.95 65 12c-2.832 6.943-5.476 13.939-8 21l6 1-3 1-1 3h-6c1.587-6.643 3.503-13.157 5.5-19.687l.934-3.088.91-2.987.818-2.686C62.005 6.985 62.97 4.497 64 2l-3-1c1-1 1-1 4.063-1.062" fill="#5E84B1"/><path d="M73 94c5.21 2.823 9.813 5.992 14.438 9.688l1.927 1.51A210 210 0 0 1 94 109v1h-5v-3l-2.875-.375C83 106 83 106 81 104c-2.007.065-2.007.065-4.312.375C69.373 104.6 63.657 100.194 58 96v-1q3.188-.04 6.375-.062l3.586-.036C71 95 71 95 73 96z" fill="#A7BCF7"/><path d="M6 46c4.419 1.35 6.343 3.261 9 7l-2 1c-.392 2.325-.392 2.325-.5 5-.156 2.75-.156 2.75-.5 5l-2 1-1 3H7l-1 3-2-1c-.058-3.25-.094-6.5-.125-9.75-.017-.92-.034-1.84-.05-2.79l-.02-2.694-.032-2.476c.249-2.509.97-4.124 2.227-6.29" fill="#BEF5FC"/><path d="m97.023 45.953 2.352.297 2.336.266c2.368.5 4.183 1.31 6.289 2.484v-2h3v2l2 1-1.75.75c-2.37 1.175-2.37 1.175-4.25 3.313-2.194 2.125-3.097 2.34-6 2.937-2.684 1.253-5.284 2.555-7.8 4.121-4.73 2.927-4.73 2.927-7.638 2.629L84 63l1-3c1.75-.625 1.75-.625 4-1l2.75-.562L94 58l3-9-3 3h-2c1.192-5.958 1.192-5.958 5.023-6.047" fill="#9CA2D7"/><path d="m47 100 1 2c2.018 1.113 4.048 2.02 6.188 2.875C56 106 56 106 56.812 107.938 57 110 57 110 56 113h-4l1 2 3 1c1.188 3.063 1.188 3.063 2 6l-4 1v2c-5.93.379-10.472-.894-16-3l1.77-.437c5.534-.989 5.534-.989 10.23-3.563l-1-1.812C48 114 48 114 48 111h7v-2l-2-.312c-3.838-.88-7.331-2.258-11-3.688z" fill="#D5DAF6"/><path d="M25 63c2.438.75 2.438.75 5 2 1.447 3.686.442 5.783-1.031 9.363-1.282 3.49-2.217 7.042-3.157 10.637l-.541 2.072Q24.63 89.535 24 92l-3-2a76 76 0 0 1-.312-8.75l-.01-2.422C20.733 72.772 21.576 68.136 25 63" fill="#83C6FB"/><path d="M65 42c1.563 1.625 1.563 1.625 3 4-.312 3.25-.312 3.25-1 6h9v1c-6.111.959-11.961 1.021-18.145.84-3.058-.07-3.058-.07-5.855 2.16-.724 2.06-.724 2.06-1 4l-7 1c0-3 0-3 2.375-5.437L49 53c1.295-2.166 1.295-2.166 2-4l7 1 1-3-3-1 3.438-.375L63 45l1-2z" fill="#8592AC"/><path d="M71 11c9.41.964 9.41.964 14 2l2 6-11-3-1 7 2.188.188C80.847 24.245 82.492 26.206 85 29l-11 3q-1.007-3.405-2-6.812l-1.125-3.833C70 18 70 18 70 15l2-1z" fill="#92D1F8"/><path d="M7 38c.934 3.01 1.044 3.867 0 7h26l-1 2c-2.55.312-5.004.513-7.562.625l-2.155.117c-1.76.095-3.522.177-5.283.258 4.436 4.65 9.327 8.263 14.55 12.012L34 62v2c-4.261-.567-7.273-3.14-10.625-5.625l-3.734-2.719-1.858-1.36a469 469 0 0 0-7.658-5.421l-2.43-1.695L6 46l-1 4c-1.43-2.354-2.087-3.48-1.625-6.25L4 42h2z" fill="#7388AB"/><path d="m65 32 2 1 1 3c1.874.802 1.874.802 4.063 1.188l2.222.48L76 38l1-2c1.097 3.29.8 4.713 0 8h-5v2l4 1 1 4h-6v-6l-1 2c-3-1-3-1-5-3l-3-1-1-3 1-2-3-1 5-1z" fill="#C2D5E1"/><path d="M106 58c.582 3.911.629 5.962-1.453 9.398-2.65 3.44-4.915 6.18-8.547 8.602l-8-4v-2l3.438-.375L95 69l1-2-2 1c-2.333.04-4.667.043-7 0l1-4 5-1-1 3c3.576-1.668 10.821-8 14-8" fill="#A2AEEC"/><path d="m109 20 3 2v2h2c1.727 2.195 1.727 2.195 3.625 5.125l1.914 2.883c1.606 3.289 1.75 5.382 1.461 8.992h-3c-1.46-2.647-2-3.894-2-7h-4l-1-2v3l2 1-1 4c-2-1.312-2-1.312-4-3v-3h-2v-3h2l-1-7h2z" fill="#59BAF0"/><path d="M110 91h1v5h2l-1 6h-1l-.25 3.313c-.75 3.687-.75 3.687-2.437 5.75-2.313.937-2.313.937-5.438.374C100 110 100 110 98.563 108.126c-.653-2.466-.46-3.758.437-6.125 1-1 1-1 3.563-1.062L105 101l1-3h2l.438-2.937C109 92 109 92 110 91" fill="#7BDBFD"/><path d="M40 77c3.83 1.453 5.12 3.429 7 7l-3-1-2 4 6 5c-.364 2.83-.908 3.908-2.96 5.957-.798.612-1.594 1.225-2.415 1.856l-2.398 1.894L38 103l-3-1 .938-1.5c1.185-2.79 1.467-5.396 1.777-8.395C38.142 88.95 39.05 86.035 40 83l-2-2z" fill="#88A1C2"/><path d="m58.75 1.875 2.984.055L64 2c-1.556 7.924-4.026 15.425-6.625 23.063l-1.273 3.779Q54.557 33.423 53 38h5l1 2-6 1-2-4h-3c-.312-2.312-.312-2.312 0-5 2.5-1.687 2.5-1.687 5-3v-2h2l1-6-5 1 2-3h2v-2l3-2-1-2h2l.438-3.437C60 6 60 6 61 5L49 4c3.988-1.994 5.471-2.227 9.75-2.125" fill="#ADC8E9"/><path d="m30 46 5 10-2 3c-7.99-1.53-13.35-6.35-19-12z" fill="#96B5D4"/><path d="m109 80 2 2 2-2h3c.213 4.468-.409 7.823-2 12l-2-2-1.875 1.5C108 93 108 93 106 93v2c-1.531 1.29-1.531 1.29-3.5 2.625l-1.969 1.352L99 100l-1-3h2v-2l2-2-1-3c1.313-2.187 1.313-2.187 3-4h2v-2h2z" fill="#9EC8FD"/><path d="m125 68 2 3-3 1 .313 2.313C124 77 124 77 121.937 78.687 118.69 80.14 115.42 81.033 112 82l-2 2-1-12 2 1 2-3 2 3c3.278-.752 3.278-.752 5-4 2.625-.687 2.625-.687 5-1" fill="#C7CAF9"/><path d="M31 36c2.252 2.688 3.882 4.646 5 8h9l1 3h-2l-1 8c-3.356-1.389-5.073-2.917-7-6v-2l-2 1c1.25 3.46 2.675 6.147 5 9-3.232-.96-4.759-1.694-6.875-4.375C30.889 49.74 30.977 48.865 32 46l-1-1a75 75 0 0 1-.062-4.562l.027-2.504z" fill="#7B8CB0"/><path d="M43 82c4.671 1.641 4.671 1.641 6.375 3.5 2.044 1.886 3.6 2.177 6.313 2.688l2.449.48L60 89l-1 4-2-2h-4l-.105 1.715c-1.357 3.466-4.192 4.906-7.208 6.847L42.2 101.88 39 104l-2.293 1.777C35 107 35 107 33 107l1-5 2-.125c4.39-1.28 7.485-4.023 11-6.875-.79-4.25-2.847-6.09-6-9z" fill="#7B91BE"/><path d="m39 59 1.936.48c4.035.685 7.998.754 12.084.836l2.601.063q4.096.097 8.191.184l5.569.13q6.81.16 13.619.307v1c-7.535.86-15.048 1.282-22.625 1.563l-3.332.13Q53.023 63.85 49 64l2 3c.125 3.188.125 3.188 0 6h-1l-1-4v5l-4-2 1-3a88 88 0 0 0-1-5v-2h-2l-1 2-4-2z" fill="#B4C2D8"/><path d="M111 47c2.375-.187 2.375-.187 5 0l2 3c-13.205 9.505-13.205 9.505-19.187 13.625l-2.043 1.414C95 66 95 66 92 66l-1-2-3-1c12.305-8 12.305-8 19-8l1-4 4-1z" fill="#7B80B4"/><path d="m75 54 1 5-1.772-.016q-3.99-.029-7.978-.047l-2.79-.025-2.694-.01-2.476-.016c-2.23.111-4.151.493-6.29 1.114-.187-2.375-.187-2.375 0-5 6.204-4.136 15.856-2.329 23-1" fill="#DEE2EC"/><path d="M13 28h1c.336 6.046-1.881 8.802-5 14h14v-2h2l-1 3c2.03-.425 2.03-.425 4-2 .985-2.652 1.46-5.205 2-8l1 2h2q-.212 2.22-.437 4.438l-.247 2.496C32 44 32 44 31 45a99 99 0 0 1-5.348.098l-3.271-.01-3.443-.026-3.456-.013A2762 2762 0 0 1 7 45c.689-9.517.689-9.517 3.5-13.562l1.344-2.004z" fill="#CADAEA"/><path d="M65 2c8.97-.659 16.502 1.221 25 4v3l2 1c-3.677.15-6.698.087-10.25-.937C76.866 7.679 72.05 7.347 67 7z" fill="#9BD0E0"/><path d="M115.5 55.75C119 57 119 57 121 60c.047 1.938.047 1.938-.25 4l-.266 2.063C120 68 120 68 118 71c-2.422-.656-2.422-.656-5-2-.89-2.531-.89-2.531-1.25-5.5-.432-3.885-.432-3.885-1.75-7.5 2-1 2-1 5.5-.25" fill="#F9E8FA"/><path d="M88 77c3.204 1.602 3.49 4.406 4.688 7.688l1.386 3.699c.971 3.789.7 5.847-.074 9.613.285 2.535.285 2.535.938 4.875L96 107l-9-5 2-2 3 2-.621-2.195c-2.285-8.2-2.285-8.2-2.942-12.43L88 85l-2-1c.875-4.75.875-4.75 2-7" fill="#6680B5"/><path d="M106 69h2c1.63 4.791 2.206 8.056 1 13l-1-2c-2.342-.324-2.342-.324-5 0-2.071 1.645-2.071 1.645-3.75 3.875l-1.797 2.18C95.958 87.937 95.958 87.937 95 90h-2l-1-4h2v-2l2.313-1.75c3.032-2.54 4.022-4.703 5.687-8.25 2.063-2.875 2.063-2.875 4-5" fill="#7EA0E9"/><path d="M53 122c4.716-.196 8.478.3 13.012 1.559 2.992.664 5.937.5 8.988.441l3 1 1-3h9c-5.296 5.296-14.262 5.124-21.365 5.137l-2.198-.012-2.208.012c-4.186-.008-8.107-.316-12.229-1.137l4-1z" fill="#68AECA"/><path d="M15 102h2v2h2l1-2 3 4 2-2h3c1.478 2.957 1.06 5.742 1 9l5-2c-1.25 2.438-1.25 2.438-3 5-2.11.66-2.11.66-4 1a1081 1081 0 0 1-4.312-4.687l-2.426-2.637c-2.077-2.458-3.7-4.871-5.262-7.676" fill="#BEB9C8"/><path d="M67 7c9.794-.67 16.945 1.55 26 5l2.895 1.031C98 14 98 14 98.813 16.125L99 18c-4.75-.875-4.75-.875-7-2v-2l-2.547-.375C85.8 12.964 82.316 12.032 78.75 11l-3.703-1.062C72 9 72 9 70 8v5l6 1v1l-7 1z" fill="#5BBDE8"/><path d="M70 8q3.813.934 7.625 1.875l2.16.527C83.928 11.43 87.967 12.588 92 14v2l5 2v4c-4.613-1.318-8.149-3.134-12-6l-1-2c-2.248-.654-2.248-.654-4.875-1.062-2.836-.5-5.386-1.025-8.125-1.938l-1 2z" fill="#6FDAFB"/><path d="m54 95 1 2-1 2 3-1c2.7 1.215 2.7 1.215 5.688 2.938l3.011 1.714L68 104v2c-4.04 1.029-7.466 1.809-11.273-.2-1.99-1.526-3.858-3.13-5.727-4.8l-3-2z" fill="#AFC5F3"/><path d="m79 44 4 2 3-2a98 98 0 0 1 7 0l-1.875.875C88.867 45.937 88.867 45.937 87 48l3 1-5 6c-2.312 0-2.312 0-5-1-1.383-2.555-2.218-5.209-3-8z" fill="#9FB0CB"/><path d="M87 45h8l-2 6c2.124.226 2.124.226 3.625-1.5L98 48c-.607 4.128-2.038 7.332-4 11h-6l3-5h-2l-2 3h-2c.6-3.356 1.846-5.378 4-8l-2-1z" fill="#7587B2"/><path d="M65.063-.062 68 0v2h-3l.7 1.879C66.816 6.913 67.91 9.955 69 13l.696 1.929a670 670 0 0 1 2.117 6.009c.23.638.461 1.276.7 1.933 1.158 3.38 1.87 5.741.487 9.129-2.443-3.665-3.681-7.363-5.125-11.5l-.84-2.34-.793-2.254-.723-2.052C65 12 65 12 65 9h-2l1-7-3-1c1-1 1-1 4.063-1.062" fill="#4485B2"/><path d="M83 103v3l6 1v3h5l1 4a939 939 0 0 1-17-2v-2h6v-2l-11-3v-1c3.406-.778 6.508-1.1 10-1" fill="#9EE1F9"/><path d="m110 31 2 1v2h4q1.007 1.935 2 3.875l1.125 2.18C120 42 120 42 120 44h-10l-1-3-2-1c-.625-3.062-.625-3.062-1-6h2v3l4 2 1-3-3-1z" fill="#71BEF2"/><path d="M64 15c3.06 3.06 4.024 6.837 5 11-.312 3.063-.312 3.063-1 5h-7c-1.498-3.882-.431-6.434.938-10.25l1.152-3.266z" fill="#97C3EF"/><path d="M17 86c2.736 2.736 3.19 5.261 3.375 9-.008 2.125-.008 2.125-.375 4-2.5 2-2.5 2-5 3-2-1.562-2-1.562-4-4-.25-3.75-.25-3.75 0-7l2 1v2h2l.438-3.437C16 87 16 87 17 86" fill="#8BCDF5"/><path d="M59 63h14l-1 2h-3v2h-3v2h2l1 4-10 1c2-4 2-4 4-6l-3-1z" fill="#8C9CBB"/><path d="M51.742 22.313 54 23v2a91 91 0 0 1-5.062 3.75A148 148 0 0 0 36 39l-2-3a406 406 0 0 1 7-7l2.07-2.059L45.125 25l1.883-1.812C49 22 49 22 51.742 22.313" fill="#F5EEFE"/><path d="m50 43 2 3c3.568.736 3.568.736 7 1l-1 4c-2 .043-4 .04-6 0l-1-1-3 5c-2.437-.375-2.437-.375-5-1l-1-2h2l1-3q1.47-1.53 3-3z" fill="#A8B7C8"/><path d="m83 63 5 1-1 4 9-1-1 3h-7v2l1.75.375c2.273.631 4.175 1.514 6.25 2.625-1.937.563-1.937.563-4 1l-1-1q-3.5-.061-7 0l-.437-2.25c-.505-2.663-.505-2.663-1.188-4.875C82 66 82 66 83 63" fill="#7A8EB2"/><path d="M123 45c4.372 3.641 4.404 8.613 5 14 .14 3.675.128 7.325 0 11l-5-2v-8h1l1-10h-6c1-3 1-3 4-5" fill="#9B96C1"/><path d="m75 54 3 1v6H47l4-1 1-4v4l2.414-1.023c4.512-1.23 8.341-.97 12.961-.602l2.52.172c2.035.14 4.07.295 6.105.453l-2-1z" fill="#9BA3B4"/><path d="m14 51 7 5c-.514 4.97-1.234 9.29-3 14-2.624-5.247-3.095-8.088-3-14h-2z" fill="#95D8F9"/><path d="M25 63c2.438.75 2.438.75 5 2 1.28 3.137.926 5.037-.312 8.125l-.801 2.07C28 77 28 77 26 79l-.367-1.715-.508-2.222-.492-2.215C24.17 70.793 24.17 70.793 22 70c.613-2.962 1.254-4.38 3-7" fill="#97C8F8"/><path d="M97 115v4c-5.625 3-5.625 3-9 3v-3l-3.937-.375c-2.215-.21-2.215-.21-4.063-.625l-1-2q2.813-.254 5.625-.5l3.164-.281c3.082-.21 6.123-.256 9.211-.219" fill="#57CDF0"/><path d="M121 87h2c-2.032 7.723-6.183 15.589-13 20-.243-5.476.982-7.472 4-12l3-1c.733-2.015.733-2.015 1-4h2z" fill="#5FC4D9"/><path d="M15 75h1v6l2 1-.437 2c-.686 3.656-1.125 7.306-1.563 11-3-1-3-1-5-4-.237-5.824 1.476-10.843 4-16" fill="#B1E7FE"/><path d="m98 103 3.375.5c3.345.546 3.345.546 5.625.5h3c.25 2.313.25 2.313 0 5-1.625 1.938-1.625 1.938-4 3-3.408-.613-5.335-1.062-7.375-3.937C98 106 98 106 98 103" fill="#64CDEB"/><path d="m50 89 7 1v4a71 71 0 0 1-6.812 5.125l-1.948 1.34A444 444 0 0 1 43 104l-3 2-3-1q2.34-1.912 4.688-3.812l2.636-2.145C47 97 47 97 49.77 95.426 52.305 94.135 52.305 94.135 53 91l-3-1z" fill="#7688B9"/><path d="M88.188 73.813C91.39 74.026 94.002 74.884 97 76l-4 5c2.712-1.613 5.374-3.249 8-5-1.173 3.337-2.189 5.774-5 8h-2v2h-2l-.516-2.152-.734-2.785-.703-2.778c-.813-2.477-.813-2.477-3.156-3.101L85 75c1-1 1-1 3.188-1.187" fill="#C0CCF9"/><path d="m121 48 1 2h3v14c-2-4-2-4-3-7l-2-1v-2h-8c2.363-2.526 3.665-3.888 7-5l2 1z" fill="#BFB8E9"/><path d="m71 20 4 2 3 1.375C81 25 81 25 85 29l-11 3z" fill="#8DC3F3"/><path d="M94 110c3.653 1.25 4.78 1.671 7 5l-3 2-1-1a63 63 0 0 0-4.254-.098l-2.588.01-2.72.025-2.733.014q-3.352.018-6.705.049l2-4c10.558.964 10.558.964 15 2z" fill="#74E1FB"/><path d="m66 79 2.25 1.438c2.552 1.656 2.552 1.656 4.938 1.937C75 83 75 83 76.25 85.563L77 88l-7 3-3-3h-1z" fill="#A8BBD3"/><path d="M73 98c3.368-.562 5.824-.642 8.882 1.027 1.931 1.393 3.745 2.864 5.555 4.41l1.928 1.565c1.577 1.295 3.11 2.642 4.635 3.998v1h-5v-3l-2.75-.25C83 106 83 106 81.125 104c-3.153-2.967-5.866-2.716-10.125-3z" fill="#81C1F0"/><path d="M69 45h2v6l5-1 1-3c2 3 2 3 3 6 2.504 1.219 2.504 1.219 5 2v2l6-5 1 3c-1.624 2.051-2.61 2.91-5.187 3.5-2.946-.524-4.14-1.275-6.563-2.937C75.949 52.657 72.117 52.13 67 52c.875-4.75.875-4.75 2-7" fill="#9FA9C2"/><path d="m40 91 3 2 2-1 3 1c-1.412 3.359-3.034 5.133-5.937 7.313l-2.09 1.613L38 103l-3-1 .813-1.562c1.51-3.102 2.843-6.26 4.187-9.438" fill="#BCBCE7"/><path d="M32 79a568 568 0 0 1-1.312 6.938l-.739 3.902L29 93l-3 1c-1.589-3.178-1.275-6.534-1-10 .813-2.437.813-2.437 2-4 3-1 3-1 5-1" fill="#D4E7FD"/><path d="M105 58h1c.569 5.575-.423 8.356-3.613 12.715C101 72 101 72 98 72c-.312-3.187-.312-3.187 0-7 2.375-2.812 2.375-2.812 5-5z" fill="#BAA9EF"/><path d="M48 100c3.906.607 6.325 2.518 9.438 4.875 2.757 2.079 5.412 4.039 8.41 5.758L68 112v2l-12-2v-6l-1.75-.312c-2.607-.797-4.224-1.879-6.25-3.688z" fill="#D3E6FD"/><path d="m104 86 2 1-1 2 2 1 2-4 3 2c-.75 1.938-.75 1.938-2 4-2.125.75-2.125.75-4 1v2c-1.531 1.29-1.531 1.29-3.5 2.625l-1.969 1.352L99 100l-1-3h2v-2l2-2-1-3c1.438-2.187 1.438-2.187 3-4" fill="#8DC1FD"/><path d="M58 38h4l1 7-11 2-1-4 7-4z" fill="#D0DEE9"/><path d="M76 91c3.375.547 5.082 1.055 8 3 1.618 2.64 2 3.84 2 7-5.442-.34-8.937-3.703-13-7l3-1z" fill="#728FCF"/><path d="m86 88 2 1-1 6 2.438.625L92 97c.813 3.125.813 3.125 1 6-5.75-1.75-5.75-1.75-8-4h-1v-5l-3-1z" fill="#96B6ED"/><path d="m44 75-1.812.938c-2.44 2.3-2.743 3.468-3.626 6.624-1.242 4.252-1.242 4.252-4.25 6L32 89v-3l2-1-1-3-2-1 5-1v-3l-2-1c3.782-1.837 5.946-2.158 10-1" fill="#B0C7F1"/><path d="M3 51h1l1 19c4.088-1.465 4.088-1.465 4.75-4.125L10 64c.84 2.35 1.06 3.734.5 6.188C8.19 72.979 5.47 72.606 2 73q-.04-4.375-.062-8.75l-.026-2.5-.01-2.422-.016-2.222C2.002 54.954 2.41 53.07 3 51" fill="#74BFCE"/><path d="M70 105v2l2.313-.187c3.175.221 3.644.905 5.687 3.187q-2.156.253-4.312.5l-2.426.281c-4.692.454-7.127-.576-11.262-2.781l1-2c3.02-.55 5.926-1 9-1" fill="#A6D5FB"/><path d="m21 59 3 1c.498 4.984-.736 7.733-3.043 11.965C19.543 74.972 19.275 77.705 19 81h-1c-.336-8.054-.052-14.498 3-22" fill="#E9F7FE"/><path d="M24 49h7a101 101 0 0 1 3 6l-1 2c-2.944.245-4.658.176-7.312-1.187C24 54 24 54 23.75 51.313z" fill="#CEDEF6"/><path d="m65 42 3 4-2 3-2-2h-2v5l-1.828.148-2.422.227c-.789.07-1.578.14-2.39.21-2.446.43-4.208 1.201-6.36 2.415l2-6 7 1 1-3-3-1 3.438-.375L63 45l1-2z" fill="#9DA7BA"/><path d="M57 7h3c-.14 2.854-.266 5.27-1 8-3.317 2.938-6.667 3.496-11 4a340 340 0 0 1 2.375-3.5l1.336-1.969L53 12h2l.438-1.937C56 8 56 8 57 7" fill="#D0E9F5"/><path d="M48 67a101 101 0 0 1 6 2c1 2 1 2 .223 4.602l-1.16 3.023-1.153 3.04L51 82c-1.488-1.113-1.488-1.113-3-3-.293-2.918-.293-2.918-.187-6.187l.082-3.293z" fill="#CDD8E4"/><path d="M64 10c2.864 3.818 4.268 7.114 5.688 11.563l.681 2.037C71.322 26.516 72 28.912 72 32h-2l-5-15-3 6-2-1z" fill="#679BCB"/><path d="M67 90c3.785 1.514 4.007 2.014 6 6H58l1 3h-5c.438-2.375.438-2.375 2-5 2.297-.786 4.506-1.188 6.906-1.543 2.302-.305 2.302-.305 4.094-2.457" fill="#C2D8FB"/><path d="m104 66 1 2 3-1 1 5-1-3-2.062 2.063c-.68.672-.68.672-1.372 1.359a193 193 0 0 0-3.351 3.469l-1.84 1.921-1.727 1.833C96 81 96 81 93 81c1.25-3.749 3.21-5.21 6-8 1.752-2.284 3.37-4.625 5-7" fill="#C9D9FE"/><path d="M66 54h9l1 5H61l2-4 1 2h2z" fill="#ECF0F6"/><path d="m51.688 120.438 3.574.308L58 121l-4 2v2c-5.93.379-10.472-.894-16-3l1.813-.437c4.395-1.13 7.279-1.535 11.874-1.126" fill="#BAC8E8"/><path d="m58.75 1.875 2.984.055L64 2a513 513 0 0 1-.875 4.25l-.492 2.39C62.008 10.969 61.152 12.89 60 15l-3-2h2l.438-3.437C60 6 60 6 61 5L49 4c3.988-1.994 5.471-2.227 9.75-2.125" fill="#9EC1D5"/><path d="M65.125 112.938 68 114l1-2 8 4v2c-5.724-.747-11.349-1.829-17-3v-2c2-1 2-1 5.125-.062" fill="#A3EDFE"/><path d="m81 65 2 1c1.209 4.432.945 6.893-1 11a91 91 0 0 0-1 4h-2V67h2z" fill="#CBD4E4"/><path d="M97 105c3 2 3 2 4 5 2 1.209 2 1.209 4 2l-3 5-3-1v-3c-2.44-2.201-2.44-2.201-5-4z" fill="#378CB8"/><path d="M93 90c1.063 1.75 1.063 1.75 2 4l-.5 1.844c-.61 2.627-.213 4.304.438 6.906L96 107l-9-5 2-2 3 2-2-10h2z" fill="#5C84C3"/><path d="m52 17 3 1-3 3h4v3l-3.125-.812c-4.06-.197-4.45-.182-7.312 2.25L43 28c1.241-4.964 2.761-7.139 7-10z" fill="#CED1F3"/><path d="m123 41 3 2-1 4h-3l-2.187 1.188c-4.155 1.2-7.003-.43-10.813-2.188v-1l13-1z" fill="#4A6CA6"/><path d="M65.063-.062 68 0v2h-3l.656 1.61.844 2.14.844 2.11C68 10 68 10 68 14h-2l-1-5h-2l1-7-3-1c1-1 1-1 4.063-1.062" fill="#3D6181"/><path d="M7 38c.934 3.01 1.044 3.867 0 7h8c-1.25 1.563-1.25 1.563-3 3-2.325-.282-3.909-.954-6-2l-1 4c-1.43-2.354-2.087-3.48-1.625-6.25L4 42h2z" fill="#567485"/><path d="M75 32c.625 3.063.625 3.063 1 6-5.625.25-5.625.25-9-2l1-4c4.75-1.125 4.75-1.125 7 0" fill="#8199B9"/><path d="m48 93 3 1c-4.655 5.136-10.195 9.233-16 13h-2l1-5 2-.125c4.36-1.272 7.613-3.892 11-6.875z" fill="#979DCC"/><path d="M21 77c3.952 4.25 3.952 4.25 4.172 7.676l-.422 2.636-.39 2.676c-.12.664-.238 1.328-.36 2.012l-3-2c-.293-3.04-.293-3.04-.187-6.625l.082-3.602z" fill="#84B2E9"/><path d="m47 100 1 2 1.875.938c2.183 1.091 3.495 2.27 5.125 4.062-4.824.193-8.496-.243-13-2z" fill="#C3C4E7"/><path d="M108 92c1 3 1 3 0 6-2.527 3.51-5.95 4.007-10 5 1.44-3.362 3.248-5.592 6-8h2v-2z" fill="#73C3F9"/><path d="m34 62 7 2 1 4-8 1v-3l-2-2h2z" fill="#9DB1C9"/><path d="m121 37 2 3-1 5H96c2-2 2-2 4.247-2.135l2.76.158 2.99.157 3.128.195 3.152.172q3.863.213 7.723.453z" fill="#5F95CA"/><path d="M49 5a1622 1622 0 0 1-7.687 3.938l-2.186 1.13C35.435 11.94 32.163 13.483 28 14c3.122-3.512 6.249-5.348 10.5-7.312l3.406-1.614C45.122 3.958 45.916 4.032 49 5" fill="#9B9CAB"/><path d="M60 122h19l-1 3c-6.404.236-11.846-.177-18-2z" fill="#6DE0FD"/><path d="M12 56c.971 3.021 1.136 5.005 0 8l-2 1-1 3H7l-1 3-2-2h2v-5h2l.313-1.75C9.098 59.68 10.305 58.063 12 56" fill="#A4EBFE"/><path d="M37 44h8l1 3h-2l-2 5c-2.252-2.688-3.882-4.646-5-8" fill="#91A8C7"/><path d="M87 18c3.462.657 6.006 2.04 9 3.875l2.563 1.555c4.674 3.011 4.674 3.011 6.437 4.57v3c-3.497-1.596-6.463-3.673-9.562-5.937l-2.88-2.09C90.528 21.406 88.743 19.87 87 18" fill="#67C1EA"/><path d="m22 91 2 1v7l-1-2h-2l2 7h-6v-2l-2-1 1.938-.812C19.33 99.113 19.33 99.113 20 96h2z" fill="#B1D3F4"/><path d="M17 70c2.97 3.273 3.344 5.38 3.188 9.75l-.083 2.984L20 85l-4-1c-1.137-3.404-.84-5.775-.062-9.25l.59-2.703z" fill="#D7EBFD"/><path d="M48 63c3.875 1.257 6.106 2.312 8 6 .438 3.5.438 3.5 0 7-2 2.438-2 2.438-4 4l.613-2.012c.71-2.715 1.258-5.181 1.387-7.988-2.147-3.065-2.147-3.065-5-5z" fill="#99A6BE"/><path d="m83 61 1 2c-1.94 2.263-3.331 3.146-6.125 4.375-3.115 1.333-3.115 1.333-3.75 4.313L74 74l-2-2c.354-2.263.975-3.95 2-6 2.063-1.125 2.063-1.125 4-2l-5-1v-1z" fill="#97A3BC"/><path d="M6 46c4 2 4 2 4.875 4.438C11 53 11 53 9 56H6z" fill="#D8F7FB"/><path d="m102 38 1 4h3l1-2 3 1v3H98l1-4h2z" fill="#A2CFF7"/><path d="M88 38h8c-1.875 4.875-1.875 4.875-3 6-1.666.04-3.334.043-5 0z" fill="#B4C7F7"/><path d="M122 72h2c.313 2.313.313 2.313 0 5-2.861 2.242-4.34 3-8 3l1-5 5-1z" fill="#9BBDF7"/><path d="M34 47h2c1.727 2.188 1.727 2.188 3.625 5l1.914 2.813L43 57c-3.995 0-5.142-1.289-8-4-1.312-2.75-1.312-2.75-2-5z" fill="#9CAFD1"/><path d="M108 47h3v2l2 1c-2.937 1.523-5.917 2.801-9 4l-2-5h6z" fill="#A7AFDF"/><path d="M94 31c3.255.561 4.998 1.331 7 4 .688 2.688.688 2.688 1 5l-4 1v-5l-2 2c-1.46-2.647-2-3.894-2-7" fill="#80C3F0"/><path d="M51 31c2 2 2 2 2.125 4.625L53 38h5l1 2-6 1-2-4h-3v-5z" fill="#B2CCEF"/><path d="m36 105 3 2a617 617 0 0 1-3.875 3l-2.18 1.688C31 113 31 113 29 113l1-7c1.207.03 1.207.03 2.438.063 2.496.233 2.496.233 3.562-1.063" fill="#878BAC"/><path d="M15 102h2v2h2l1-2c2 1.625 2 1.625 4 4 .25 3.25.25 3.25 0 6a324 324 0 0 1-3.375-2.75l-1.898-1.547c-1.81-1.785-2.728-3.382-3.727-5.703" fill="#AFB4CD"/><path d="M86 84h3l.438 3.125c.479 3.3 1 6.588 1.562 9.875l-5-2 1-6h-2z" fill="#82A1DC"/><path d="m11 91 2 1v2l3 1v6h-3c-2.43-3.644-2.162-5.712-2-10" fill="#96CEDB"/><path d="M102.188 91.938 104 93l-4 2v2h-2l1 4-2 1c-1.125-7.75-1.125-7.75 0-10 3-1 3-1 5.188-.062" fill="#87B2F7"/><path d="M106 69h2c2.429 7.429 2.429 7.429 1 11a91 91 0 0 1-4-4v-2l-2-1c1.375-2 1.375-2 3-4" fill="#AFA6EB"/><path d="m84 47 4 3c-1.453 3.753-1.453 3.753-3.937 4.875C82 55 82 55 79 53v-2c3.875-1 3.875-1 5-1z" fill="#BDD3E9"/><path d="M60 115c2.147.28 4.293.575 6.438.875l3.62.492L73 117l1 2q-2.375.039-4.75.063l-2.672.035c-2.36-.09-4.323-.429-6.578-1.098z" fill="#68C7EC"/><path d="m91 63 2 1-1 2 7-2-2 4H87l1-4z" fill="#98A7D5"/><path d="M98.266 58.348 100 59h-2l-.75 2.938L96 65c-2.125.875-2.125.875-4 1l-1-2-3-1c1.24-.87 2.492-1.72 3.75-2.562l2.11-1.442C96 58 96 58 98.265 58.348" fill="#7888BC"/><path d="m43 54 4 1c-1 3-1 3-4 5-2.324.394-4.658.735-7 1l-1-2h2v-2l3-1 2 1z" fill="#91A6BE"/><path d="M71 105c5.26-.316 8.446.334 13 3v2c-5.635.55-8.39-1.05-13-4z" fill="#CAF1FE"/><path d="M78 24c3.092 1.386 4.492 2.492 7 5l-10 2 1-5h2z" fill="#9FCEF9"/><path d="M90 15c5.662 1.477 5.662 1.477 7.375 4.125L98 21c-3 1-3 1-5.625-.25C90 19 90 19 89 16z" fill="#74E4FD"/><path d="M88 11c1.651.396 3.296.817 4.938 1.25l2.777.703C98 14 98 14 98.816 16.11L99 18c-4.75-.875-4.75-.875-7-2v-2h-4z" fill="#56C5EC"/><path d="M71 11c9.41.964 9.41.964 14 2v3c-4.97-.514-9.29-1.234-14-3z" fill="#87E4FE"/><path d="M67 7h11v1h-8v5l6 1v1l-7 1z" fill="#7BC6E9"/><path d="m62 112-2 1v4l-7-1-1-3c3.38-1.04 6.478-1.08 10-1" fill="#ACCBF0"/><path d="M69 110h9v2h-2v3l-7-2z" fill="#8DCDF2"/><path d="M29 89h1c3.45 9.89 3.45 9.89 2.063 13.313L31 104v-4l-3-1z" fill="#BDBCEC"/><path d="M113 80h3c.213 4.468-.409 7.823-2 12-2.325-3.633-2.24-6.767-2-11z" fill="#8ACDFA"/><path d="m54 32 1 2 2.313-.625C60 33 60 33 63 35h-3l-1 3h-6z" fill="#7492BB"/><path d="M68 100q2.72.172 5.438.375l3.058.21L79 101l1 2c-3.019 1.51-5.673 1.175-9 1l-3-2z" fill="#96BBFA"/><path d="M73 98c3.375-.437 3.375-.437 7 0l4 4-13-1z" fill="#87A7EC"/><path d="M49 97c-1.323 3.97-4.009 5.76-7.246 8.145C40 106 40 106 37 105q2.43-2.008 4.875-4l2.742-2.25C47 97 47 97 49 97" fill="#797BA9"/><path d="m57 81 2 1v7c-2.375.188-2.375.188-5 0l-2-3 4-1z" fill="#B7CBE0"/><path d="M127 71c-.42 5.605-.916 10.72-3 16h-1q.171-3.72.375-7.437c.03-.708.062-1.415.094-2.143.104-1.812.31-3.618.531-5.42 2-1 2-1 3-1" fill="#5082AE"/><path d="M79 39c2 2 2 2 2 4h-3l-1 5-5-2v-2l4-1v-3z" fill="#D4E7F7"/><path d="M78 18c4.75 1.875 4.75 1.875 7 3v3h-7z" fill="#D0EFFE"/><path d="M79 122h9c-3.22 3.22-6.783 3.906-11.25 4.25C74 126 74 126 72 124l6 1z" fill="#4EAEC4"/><path d="M94 110c3.653 1.25 4.78 1.671 7 5l-3 2-1-1c-2.67-.141-5.324-.042-8 0l1-2h5z" fill="#6CD1ED"/><path d="m30 33 1 2h2l-1 9h-6l2-3c.662-2.046.662-2.046 1.125-4.187z" fill="#C8CCE4"/><path d="m61 25 3 1v2l4 1v2h-7c-1.125-3.75-1.125-3.75 0-6" fill="#B4D4F6"/><path d="M90 7c3.775 1.09 6.47 1.908 9 5-4.41 1.026-6.926 1.037-11-1z" fill="#6DB0C7"/><path d="M60 102c3.716-.2 4.772-.152 8 2v2h-8z" fill="#89B4F5"/><path d="m76 92 2 2c1.65.707 3.316 1.38 5 2l-1 4-9-6z" fill="#5D78B3"/><path d="M17 82c.563 1.938.563 1.938 1 4l-1 1a70 70 0 0 0-.562 4.063L16 95c-3-1-3-1-5-4l1-3 3 2 .438-2.312C16 85 16 85 17 82" fill="#A2E1FA"/><path d="m32 79-1 5h-2l-1 3-2-1v-5c3.75-2 3.75-2 6-2" fill="#E1F5FF"/><path d="M60 46h1l1 6-1.828.148-2.422.227c-.789.07-1.578.14-2.39.21-2.446.43-4.208 1.201-6.36 2.415l2-6 7 1z" fill="#A7B2C8"/><path d="m62 38 1 6c-2.312.25-2.312.25-5 0-1.812-2-1.812-2-3-4 3-2 3-2 7-2" fill="#D9E9F5"/><path d="M84 30v3l-8 1-1-3c2.957-1.478 5.742-1.06 9-1" fill="#CBE4FE"/><path d="M113 24c2.916 3.54 5.501 7.163 8 11l-2 4c-2-3-2-3-2.437-5.5-.342-2.557-.342-2.557-2.126-4.062L113 28z" fill="#438DB7"/><path d="M92 24c5.75 1.625 5.75 1.625 8 5l-1 3a221 221 0 0 1-3.5-2.312l-1.969-1.301L92 27z" fill="#B6E8FE"/><path d="m22 18 1 4c-2.88 2.4-5.564 4.473-9 6 1.65-4.292 4.738-6.88 8-10" fill="#B2AEB5"/><path d="M83 72h2v3l4 2-2 2v-2l-1.375 1.5C84 80 84 80 82 80c-.625-2.312-.625-2.312-1-5z" fill="#9FB2C5"/><path d="M64 15c2.565 2.565 2.54 4.477 3 8l-5 1z" fill="#87C6F0"/><path d="M98 116c-1 3-1 3-3.875 4.688C91 122 91 122 88 122v-2l4-1v-2c2.076-.553 3.844-1 6-1" fill="#57B4CD"/><path d="m83 103 1 5-11-3v-1c3.406-.778 6.508-1.1 10-1" fill="#ACDDFC"/><path d="m48 87 12 2-1 4-2-2c-2.203-.46-2.203-.46-4.625-.625l-2.477-.227L48 90z" fill="#879EC8"/><path d="M94 94c2.952 2.952 3.087 5.955 4 10l-4 1c-1.125-7.625-1.125-7.625 0-11" fill="#547DB8"/><path d="M102 74h3v2l3 1 1 5-1-2c-2.527-.656-2.527-.656-5-1l1-3-3-1z" fill="#86A1F0"/><path d="m90 52 2 3c-1.785 2.254-2.592 2.949-5.5 3.313C84 58 84 58 81 56l1-2 3 1v2z" fill="#9EB1CF"/><path d="M59 53h9l-2 1v3l-3-1-3 3z" fill="#CCD1D9"/><path d="M27 37h2c-.75 4.75-.75 4.75-3 7-3.125.125-3.125.125-6 0l1.813-.687C24.555 41.667 25.42 39.73 27 37" fill="#DFE4F7"/><path d="m69 29 1 3 2 1h-7l-1 3c-2.062.688-2.062.688-4 1v-2h3v-4z" fill="#8DABCF"/><path d="M89 110h5l1 4-9-1 3-1z" fill="#8DEAFD"/><path d="M88.313 73.75c3.128.291 4.374 1.194 6.687 3.25l-3 1-2 3-1-5-4-1c1-1 1-1 3.313-1.25" fill="#AFC5E7"/><path d="M27 64c3 1 3 1 3.813 2.625.268 3.397-.764 6.166-1.813 9.375h-1z" fill="#AECBF5"/><path d="M18 45v2l-1 1a179 179 0 0 0-2 4l-4-4c3.625-3 3.625-3 7-3" fill="#7594B2"/><path d="M13 28h1c.403 3.523.134 4.8-1.875 7.813L10 38H8c1.15-3.892 2.292-6.939 5-10" fill="#939AAA"/><path d="M56 24c1.16 3.479.775 4.342-.437 7.688l-.872 2.449L54 36l-2-1c-.082-3.044.024-5.072 1-8h2z" fill="#A7C0ED"/><path d="M76 112h4l-.562 1.875c-.675 2.167-.675 2.167.562 4.125h-3v-2l-2-1zm-1 6 3 1h-3z" fill="#88DEFA"/><path d="m88 100 4 2 2-2 2 7-9-5z" fill="#6E98CB"/><path d="M34 97h2l-3 10-2-1q.463-1.97.938-3.937l.527-2.215C33 98 33 98 34 97" fill="#7E81B2"/><path d="m30 89 4 3 1-2-1 8c-3.938-3.323-3.938-3.323-4.25-6.75z" fill="#96AAE1"/><path d="m75 54 3 1v5h-9v-1h7l-2-1z" fill="#BEC9D7"/><path d="M98 49h3v4h-2v3h-3c.875-4.75.875-4.75 2-7" fill="#BCC2F6"/><path d="M123 45c1.563 1.25 1.563 1.25 3 3-.312 2.188-.312 2.188-1 4v-2h-6c1-3 1-3 4-5" fill="#678AC9"/><path d="M103 35h2c2.125 4.625 2.125 4.625 1 8l-3-1a129 129 0 0 1-1-6z" fill="#BFE9FF"/><path d="M49 22c2.688.313 2.688.313 5 1v2c-2.5 1.625-2.5 1.625-5 3l-3-3c1.188-1.562 1.188-1.562 3-3" fill="#DFE1FA"/><path d="m59 100 4 2-3 1 1 4c-4.875-1.75-4.875-1.75-6-4z" fill="#A0BDF2"/><path d="m40 91 3 2 2-1 3 1-2 4c-2.622-1.049-3.794-1.65-5.25-4.125z" fill="#CBD2FA"/><path d="M121 87h2c-1.156 3.912-2.355 6.875-5 10-1.044-3.133-.934-3.99 0-7h2z" fill="#4BA5C0"/><path d="M41 89c2.438.25 2.438.25 5 1l2 3-5 1-3-4z" fill="#A6B9E5"/><path d="M40 84c2 2 2 2 3 5l-1.437 1.313c-1.8 1.71-1.8 1.71-2.563 4.687h-2z" fill="#8EA6D2"/><path d="M85 77h2c0 3 0 3-2.312 5.688C82 85 82 85 79 85l1-3h2v-2h2z" fill="#BCD1ED"/><path d="m125 68 2 3c-1 1-1 1-4.562 1.063L119 72l1-3z" fill="#BDBAEC"/><path d="m104 66 1 2 3-1 1 5-1-3-1.812 1.563L104 72l-3-1z" fill="#DECCF9"/><path d="M102 58c-.187 1.813-.187 1.813-1 4-2.562 1.75-2.562 1.75-5 3 .628-3.645 1.853-7 6-7" fill="#6566A8"/><path d="m120 54 5 1v9c-2-4-2-4-3-7l-2-1z" fill="#CABDEE"/><path d="M95 46h4c-1.137 3.412-2.043 4.119-5 6h-2c.573-2.867.861-3.861 3-6" fill="#8599D1"/><path d="m123 41 3 2-1 4h-7v-2l1.938-.312L122 44z" fill="#1E4070"/><path d="m84 6 6 1v2l2 1c-6.625.25-6.625.25-10-2h2z" fill="#9DE6FC"/><path d="M48 120v3c-4.054 1.158-6.218.837-10-1l1.813-.437C45.889 120 45.889 120 48 120" fill="#ADA4B7"/><path d="M79 116h11l-2 3c-6.152-.586-6.152-.586-8-1z" fill="#5BC0EA"/><path d="M66 113v2l3 1c-6.75.125-6.75.125-9-1v-2c2.49-1.245 3.41-.777 6 0" fill="#96E1FC"/><path d="m100 110 5 2-3 5-3-1 .5-1.875c.576-2.086.576-2.086.5-4.125" fill="#377386"/><path d="M101 76h3c-1.27 3.914-2.512 5.79-6 8 .628-2.929 1.586-5.361 3-8" fill="#6E94EE"/><path d="m83 63 5 1-1 5h-3z" fill="#869AB0"/><path d="m91 60-1 3c-1.937.75-1.937.75-4 1l-2-1 1-3c2.575-.997 3.49-1.255 6 0" fill="#A0B4CE"/><path d="M16 50a56.5 56.5 0 0 1 7 4v2c-2.962-.613-4.38-1.254-7-3z" fill="#628DAD"/><path d="m46 50 4 1-2 4h-4z" fill="#DCE7F2"/><path d="M53 122h7v3l-4-1-1 2h-5l4-1z" fill="#82ADD1"/><path d="M68 105h2v2l2.313-.187C75 107 75 107 76.813 108.5L78 110h-6v-2l-4-1z" fill="#ACE2FA"/><path d="M42 77c3.362 1.44 5.592 3.248 8 6v2c-4.206-1.502-5.739-4.286-8-8" fill="#C6DCF3"/><path d="M124 77v2h-2v2l-1.875.375c-2.316.497-2.316.497-4.125 2.625v-4c2.874-2.175 4.364-3 8-3" fill="#76C1FA"/><path d="M44 72v2c-3.823 1.423-6.913 2.24-11 2 3.794-3.009 6.03-4 11-4" fill="#788FAE"/><path d="M35 70h6l-1 3c-3.062 1.188-3.062 1.188-6 2z" fill="#BCD2EB"/><path d="m31 36 4 5-2 4-2-1z" fill="#8C8EB6"/><path d="M106 34h2v3l3 1-1 4c-3-2-3-2-3.687-5.125z" fill="#79C9F7"/><path d="m109 20 3 2-2 8c-3-3.75-3-3.75-3-6h2z" fill="#429BC8"/><path d="M42 23h1v6l-5 2c1.125-2.972 2.223-5.334 4-8" fill="#E8D8F4"/><path d="M56 96c3.788.526 6.172 1.381 9 4v2c-3.937-1.312-6.227-2.92-9-6" fill="#D0E3FF"/><path d="m39 92 6 5c-3 0-3 0-6-1v3l-2-1z" fill="#AFB6DD"/><path d="M88 70c5.75-.125 5.75-.125 8 1v2l-8-1z" fill="#A9BDEA"/><path d="M77 68h1v10c-2.595-2.595-2.7-4.399-3-8z" fill="#DDE3F2"/><path d="M14 51a214 214 0 0 1 3.5 2.313l1.969 1.3L21 56v3c-3.714-1.238-4.774-2.852-7-6z" fill="#88C9ED"/><path d="m59 47-1 4h-6c3.625-4 3.625-4 7-4" fill="#D2DCEA"/><path d="M48 39a466 466 0 0 1-3.375 2.5l-1.898 1.406C41 44 41 44 39 44c.125-1.875.125-1.875 1-4 5.28-2.36 5.28-2.36 8-1" fill="#D6E8FE"/><path d="m104 25 3 1 1 5h-2l-1 3z" fill="#79D6FC"/><path d="M70 24h3l1 7-2 1c-1.257-2.906-2-4.796-2-8" fill="#547EB8"/><path d="m53 12 2 1-2 2 3 2c-1.977.73-3.98 1.394-6 2l-2-1z" fill="#E3E6FA"/><path d="m51 118 6 2v1h-9z" fill="#D3E0F8"/><path d="M112 88c1.765 3.088 2 4.233 2 8h-3c-.125-5.75-.125-5.75 1-8" fill="#71CEF2"/><path d="m50 89 7 1v4c-3.335-1.112-4.637-2.474-7-5" fill="#677EAF"/><path d="M105 61c.625 1.813.625 1.813 1 4l-2 3h-2c.375-2.937.375-2.937 1-6z" fill="#D4B4F0"/><path d="m81 50 3 1v4l-5-2v-2z" fill="#DCEAF4"/><path d="m108 32 5 4-1 4c-2-1.187-2-1.187-4-3-.25-2.687-.25-2.687 0-5" fill="#4AACE3"/><path d="m110 31 2 1v2l4 1h-2v5l-.312-1.937L113 36l-3-1z" fill="#64BFF8"/><path d="M47 29c1.097 3.29.8 4.713 0 8h-2c.875-6.875.875-6.875 2-8" fill="#C6CBFA"/><path d="m107 18 2 1-1 3-6 1-1-3 6 1z" fill="#52B2DC"/><path d="M15 102h2v2h2l1-2 1 3-2 3c-4-4.875-4-4.875-4-6" fill="#8A9EB5"/><path d="M58 95h8l-2 1-1 3a159 159 0 0 1-5-3z" fill="#B1C5F3"/><path d="m67 90 3 1v3h-6z" fill="#C8E1F7"/><path d="m100 76 1 2-5 6-1-3z" fill="#9DB8F9"/><path d="m102 55 3 1c-.375 1.938-.375 1.938-1 4l-2 1v-3l-2-1z" fill="#7770B7"/><path d="m121 48 1 2h3v2l-9-1 3-2 2 1z" fill="#9BA9E9"/><path d="m47 45 2 1a159 159 0 0 1-5 6h-2c1.25-3.653 1.671-4.78 5-7" fill="#C8DAEB"/><path d="M71 47c4.875 1.75 4.875 1.75 6 4h-6z" fill="#D4E1E9"/><path d="m76 36 2 3c-3 2-3 2-5.687 1.625L70 40l1-2h5z" fill="#A3C1D7"/><path d="m47 20 1 4-5 4c1.75-5.75 1.75-5.75 4-8" fill="#D9CCEB"/></svg>